<svg width="64" height="64" viewBox="0 0 64 64" fill="none" xmlns="http://www.w3.org/2000/svg">
<circle cx="32" cy="32" r="28" fill="#151B26"/>
<path d="M31.3342 17.2491C31.5438 16.6042 32.4561 16.6042 32.6657 17.2491L35.6146 26.325C35.7083 26.6134 35.9771 26.8087 36.2804 26.8087H45.8233C46.5014 26.8087 46.7834 27.6764 46.2348 28.075L38.5144 33.6842C38.269 33.8625 38.1664 34.1784 38.2601 34.4669L41.209 43.5427C41.4185 44.1877 40.6804 44.7239 40.1318 44.3254L32.4114 38.7162C32.1661 38.5379 31.8338 38.5379 31.5885 38.7162L23.8681 44.3254C23.3195 44.7239 22.5814 44.1877 22.7909 43.5427L25.7398 34.4669C25.8335 34.1784 25.7309 33.8625 25.4855 33.6842L17.7651 28.075C17.2165 27.6764 17.4985 26.8087 18.1766 26.8087H27.7195C28.0228 26.8087 28.2916 26.6134 28.3853 26.325L31.3342 17.2491Z" fill="url(#paint0_linear_1524_5678)"/>
<defs>
<linearGradient id="paint0_linear_1524_5678" x1="46.3999" y1="18.2547" x2="18.2545" y2="46.6184" gradientUnits="userSpaceOnUse">
<stop stop-color="#5390E3"/>
<stop offset="1" stop-color="#1357B3"/>
</linearGradient>
</defs>
</svg>
