<svg width="32" height="32" viewBox="0 0 32 32" fill="none" xmlns="http://www.w3.org/2000/svg">
<path d="M6 7.43266C6 6.64187 6.66203 6 7.47812 6H24.5219C25.3383 6 26 6.64187 26 7.43266V24.5676C26 25.3586 25.3383 26 24.5219 26H7.47812C6.66211 26 6 25.3587 6 24.5678V7.43266Z" fill="url(#paint0_linear_1563_3009)"/>
<path d="M12.0244 22.5901V13.6651H9.05791V22.5901H12.0244ZM10.5418 12.4468C11.5761 12.4468 12.22 11.7615 12.22 10.905C12.2006 10.029 11.5761 9.36279 10.5615 9.36279C9.54617 9.36279 8.88306 10.029 8.88306 10.9049C8.88306 11.7614 9.52673 12.4467 10.5224 12.4467L10.5418 12.4468ZM13.6665 22.5901H16.6328V17.6066C16.6328 17.3402 16.6521 17.0731 16.7305 16.8828C16.9448 16.3496 17.4329 15.7977 18.2526 15.7977C19.3258 15.7977 19.7553 16.6161 19.7553 17.816V22.5901H22.7216V17.4728C22.7216 14.7316 21.2583 13.4559 19.3066 13.4559C17.7065 13.4559 17.0037 14.3502 16.6132 14.9594H16.633V13.6655H13.6666C13.7053 14.5027 13.6665 22.5901 13.6665 22.5901Z" fill="#06090F"/>
<defs>
<linearGradient id="paint0_linear_1563_3009" x1="24.5714" y1="7.81818" x2="7.81818" y2="24.7013" gradientUnits="userSpaceOnUse">
<stop stop-color="#5390E3"/>
<stop offset="1" stop-color="#1357B3"/>
</linearGradient>
</defs>
</svg>
