<svg width="32" height="32" viewBox="0 0 32 32" fill="none" xmlns="http://www.w3.org/2000/svg">
<path fill-rule="evenodd" clip-rule="evenodd" d="M16.303 6C10.6106 6 6 10.5882 6 16.2529C6 20.7899 8.94924 24.6219 13.0447 25.9804C13.5598 26.0701 13.753 25.7625 13.753 25.4934C13.753 25.2499 13.7402 24.4425 13.7402 23.5838C11.1515 24.058 10.4818 22.9558 10.2758 22.3791C10.1598 22.0843 9.65758 21.1743 9.2197 20.9308C8.85909 20.7386 8.34394 20.2644 9.20682 20.2516C10.0182 20.2388 10.5977 20.9949 10.7909 21.3025C11.7182 22.8533 13.1992 22.4175 13.7917 22.1484C13.8818 21.4819 14.1523 21.0334 14.4485 20.777C12.1561 20.5207 9.76061 19.6364 9.76061 15.7147C9.76061 14.5997 10.1598 13.6769 10.8167 12.9592C10.7136 12.7029 10.353 11.6519 10.9197 10.2422C10.9197 10.2422 11.7826 9.97301 13.753 11.2931C14.5773 11.0624 15.453 10.947 16.3288 10.947C17.2045 10.947 18.0803 11.0624 18.9045 11.2931C20.875 9.9602 21.7379 10.2422 21.7379 10.2422C22.3045 11.6519 21.9439 12.7029 21.8409 12.9592C22.4977 13.6769 22.897 14.5868 22.897 15.7147C22.897 19.6492 20.4886 20.5207 18.1962 20.777C18.5697 21.0975 18.8917 21.7126 18.8917 22.6738C18.8917 24.0452 18.8788 25.1474 18.8788 25.4934C18.8788 25.7625 19.072 26.0829 19.5871 25.9804C23.6568 24.6219 26.6061 20.777 26.6061 16.2529C26.6061 10.5882 21.9955 6 16.303 6Z" fill="url(#paint0_linear_1564_3010)"/>
<defs>
<linearGradient id="paint0_linear_1564_3010" x1="25.1342" y1="7.81818" x2="8.39227" y2="25.2012" gradientUnits="userSpaceOnUse">
<stop stop-color="#5390E3"/>
<stop offset="1" stop-color="#1357B3"/>
</linearGradient>
</defs>
</svg>
